<svg width="32" height="32" viewBox="0 0 32 32" fill="none" xmlns="http://www.w3.org/2000/svg">
<path d="M20 17.3333V6.66666C20 4.45333 18.2133 2.66666 16 2.66666C13.7867 2.66666 12 4.45333 12 6.66666V17.3333C10.3867 18.5467 9.33333 20.4933 9.33333 22.6667C9.33333 26.3467 12.32 29.3333 16 29.3333C19.68 29.3333 22.6667 26.3467 22.6667 22.6667C22.6667 20.4933 21.6133 18.5467 20 17.3333ZM14.6667 14.6667V6.66666C14.6667 5.93333 15.2667 5.33333 16 5.33333C16.7333 5.33333 17.3333 5.93333 17.3333 6.66666V8H16V9.33333H17.3333V12H16V13.3333H17.3333V14.6667H14.6667Z" fill="white"/>
</svg>
