<svg width="850" height="500" viewBox="0 0 850 500" fill="none" xmlns="http://www.w3.org/2000/svg">
<g clip-path="url(#clip0_41_733)">
<path d="M511.308 140.701L425 243.486L516.385 429L658.538 383.875L673.769 228.444L689 185.826L671.231 163.264L640.769 125.66L630.615 105.604L597.615 68H577.308L511.308 140.701Z" fill="#42494F"/>
<path d="M-190.57 453.808L-214 501.327L163.222 576L207.739 544.32L271 501.327L219.454 422.128L172.594 354.244L156.193 320.301L88.2464 256.942L46.0724 223H29.6715L13.2705 241.103L-31.2464 302.199L-80.4493 345.192L-131.995 385.923L-171.826 419.865L-190.57 453.808Z" fill="#1D2124"/>
<path d="M206.887 316.944L163 382.222L264.632 565L400.912 536.278L842.088 502.333L1080 434.444L1059.21 403.111L1029.18 363.944L999.156 335.222L955.27 293.444L909.073 236L860.567 186.389L805.131 131.556L761.244 95H740.456L682.71 173.333L661.922 228.167L627.275 275.167L555.67 413.556L518.713 343.056L507.164 322.167L470.207 283L435.559 246.444L400.912 215.111L373.194 202.056L354.715 196.833L343.166 202.056L294.66 275.167L253.083 246.444H246.154L232.295 267.333L206.887 316.944Z" fill="#262B32"/>
<path d="M627.5 299V274.5L662 227.5L682.5 173L740.5 94.5H761.5L805 131L850 175.384V334.5L833.5 349L788.5 268L776 299L748.5 282L740.5 305L712.5 271.5L670 346.5L654 277.5L627.5 299Z" fill="#B4B4B4"/>
<path d="M512 139.5L475.5 183L472.5 200.5L498 190L491 223L548.5 166.5L615.5 238L627.5 160.5L655 179L658 146.5L641 125.5L630.5 105L597.5 67.5H577.5L512 139.5Z" fill="#B4B4B4"/>
<path d="M46.1795 218H29.2564L12.8462 236.994L11.3077 239.104L-1 256.214V355.178L8.23077 345.153L34.8974 362.037L49.7692 345.153L86.6923 390L95.4103 321.939L125.154 345.153L128.744 340.933L147.718 362.037L159 320.356L89.7692 253.877L46.1795 218Z" fill="#B4B4B4"/>
<path d="M373.5 194.136L355.5 189L343.5 194.136L295 269.117L253.5 239.843H246.5L233 260.9L207.5 311.743L183 349.234L221.5 325.61V352.829L252 341.017L241.5 405.727L275.5 384.67L290.5 375.426L308 389.292L328.5 367.722L363 414.971L369 361.56L429.5 435L438 352.829L496 384.67L490.5 336.908L523 346.152L507.5 317.392L490.5 298.904L452.5 257.818L438 241.898L429.5 233.681L401.5 207.489L373.5 194.136Z" fill="#B4B4B4"/>
</g>
<defs>
<clipPath id="clip0_41_733">
<rect width="850" height="500" fill="white"/>
</clipPath>
</defs>
</svg>
