<svg width="850" height="500" viewBox="0 0 850 500" fill="none" xmlns="http://www.w3.org/2000/svg">
<g clip-path="url(#clip0_81_4)">
<path d="M511.308 140.701L425 243.486L516.385 429L658.538 383.875L673.769 228.444L689 185.826L671.231 163.264L640.769 125.66L630.615 105.604L597.615 68H577.308L511.308 140.701Z" fill="#28322D"/>
<rect x="375" y="251" width="388" height="249" fill="url(#paint0_linear_81_4)"/>
<path d="M206.887 316.944L163 382.222L264.632 565L400.912 536.278L842.088 502.333L1080 434.444L1059.21 403.111L1029.18 363.944L999.156 335.222L955.27 293.444L909.073 236L860.567 186.389L805.131 131.556L761.244 95H740.456L682.71 173.333L661.922 228.167L627.275 275.167L555.67 413.556L518.713 343.056L507.164 322.167L470.207 283L435.559 246.444L400.912 215.111L373.194 202.056L354.715 196.833L343.166 202.056L294.66 275.167L253.083 246.444H246.154L232.295 267.333L206.887 316.944Z" fill="#202725"/>
<path d="M-190.57 453.808L-214 501.327L163.222 576L207.739 544.32L271 501.327L219.454 422.128L172.594 354.244L156.193 320.301L88.2464 256.942L46.0724 223H29.6715L13.2705 241.103L-31.2464 302.199L-80.4493 345.192L-131.995 385.923L-171.826 419.865L-190.57 453.808Z" fill="#191E1C"/>
<rect y="345" width="850" height="155" fill="url(#paint1_linear_81_4)"/>
</g>
<defs>
<linearGradient id="paint0_linear_81_4" x1="569" y1="251" x2="569" y2="500" gradientUnits="userSpaceOnUse">
<stop stop-color="#0B0B0B" stop-opacity="0"/>
<stop offset="1" stop-opacity="0.5"/>
</linearGradient>
<linearGradient id="paint1_linear_81_4" x1="425" y1="345" x2="425" y2="500" gradientUnits="userSpaceOnUse">
<stop stop-color="#0D0D0D" stop-opacity="0"/>
<stop offset="1" stop-color="#0A0A0A" stop-opacity="0.5"/>
</linearGradient>
<clipPath id="clip0_81_4">
<rect width="850" height="500" fill="white"/>
</clipPath>
</defs>
</svg>
