<svg width="32" height="32" viewBox="0 0 32 32" fill="none" xmlns="http://www.w3.org/2000/svg">
<path d="M16 2.66667C8.89333 8.73334 5.33333 13.9733 5.33333 18.4C5.33333 25.04 10.4 29.3333 16 29.3333C21.6 29.3333 26.6667 25.04 26.6667 18.4C26.6667 13.9733 23.1067 8.73334 16 2.66667ZM10.44 18.6667C10.9333 18.6667 11.3333 19.0133 11.4267 19.4933C11.9733 22.4533 14.4667 23.4667 16.28 23.32C16.8533 23.2933 17.3333 23.7467 17.3333 24.32C17.3333 24.8533 16.9067 25.2933 16.3733 25.32C13.5333 25.4933 10.2133 23.8667 9.45333 19.8267C9.34666 19.2267 9.82666 18.6667 10.44 18.6667Z" fill="white"/>
</svg>
