<svg width="32" height="32" viewBox="0 0 32 32" fill="none" xmlns="http://www.w3.org/2000/svg">
<path d="M27.1733 11.4267L25.5333 13.8933C26.3242 15.4708 26.7114 17.2198 26.6602 18.9836C26.6091 20.7475 26.1211 22.4711 25.24 24H6.76001C5.6149 22.0135 5.1404 19.7108 5.40686 17.4334C5.67332 15.156 6.66655 13.0251 8.23931 11.3566C9.81207 9.68804 11.8806 8.57073 14.1383 8.17027C16.396 7.7698 18.7227 8.10752 20.7733 9.13334L23.24 7.49334C20.7287 5.88296 17.7498 5.16134 14.7799 5.44392C11.8099 5.72649 9.0206 6.99693 6.858 9.05202C4.69539 11.1071 3.28449 13.8281 2.85096 16.7798C2.41744 19.7314 2.98634 22.7432 4.46667 25.3333C4.69935 25.7364 5.03346 26.0715 5.43578 26.3054C5.8381 26.5393 6.29464 26.6639 6.76001 26.6667H25.2267C25.6966 26.6685 26.1586 26.5462 26.566 26.3121C26.9734 26.0779 27.3117 25.7403 27.5467 25.3333C28.7752 23.2052 29.3917 20.779 29.3282 18.3226C29.2646 15.8662 28.5235 13.4751 27.1867 11.4133L27.1733 11.4267ZM14.12 20.5467C14.3677 20.7946 14.6618 20.9913 14.9855 21.1255C15.3092 21.2597 15.6562 21.3288 16.0067 21.3288C16.3571 21.3288 16.7041 21.2597 17.0278 21.1255C17.3516 20.9913 17.6457 20.7946 17.8933 20.5467L25.44 9.22667L14.12 16.7733C13.8721 17.021 13.6754 17.3151 13.5412 17.6388C13.407 17.9626 13.3379 18.3096 13.3379 18.66C13.3379 19.0104 13.407 19.3574 13.5412 19.6812C13.6754 20.0049 13.8721 20.299 14.12 20.5467Z" fill="white"/>
</svg>
